<svg width="817" height="217" viewBox="0 0 817 217" fill="none" xmlns="http://www.w3.org/2000/svg">
<path d="M292.888 106.921H298.167C303.341 106.921 307.16 106.059 309.624 104.334C312.088 102.609 313.32 99.8993 313.32 96.2036C313.32 92.5431 312.053 89.9386 309.518 88.3899C307.019 86.8412 303.13 86.0669 297.851 86.0669H292.888V106.921ZM292.888 120.226V149.844H276.521V72.6569H299.012C309.501 72.6569 317.262 74.5751 322.295 78.4116C327.328 82.2128 329.845 88.0027 329.845 95.7812C329.845 100.322 328.595 104.369 326.096 107.924C323.597 111.444 320.06 114.207 315.484 116.213C327.099 133.565 334.667 144.775 338.186 149.844H320.025L301.599 120.226H292.888ZM445.327 72.6569V122.601C445.327 128.303 444.042 133.301 441.473 137.595C438.939 141.889 435.261 145.18 430.439 147.468C425.617 149.756 419.915 150.9 413.333 150.9C403.408 150.9 395.699 148.365 390.209 143.297C384.718 138.194 381.973 131.225 381.973 122.39V72.6569H398.286V119.909C398.286 125.857 399.483 130.221 401.877 133.002C404.27 135.783 408.23 137.173 413.755 137.173C419.105 137.173 422.977 135.783 425.37 133.002C427.799 130.186 429.013 125.787 429.013 119.803V72.6569H445.327ZM498.828 72.6569H522.85C533.796 72.6569 541.733 74.2231 546.661 77.3556C551.623 80.453 554.105 85.3981 554.105 92.1912C554.105 96.802 553.014 100.586 550.831 103.542C548.684 106.499 545.816 108.276 542.226 108.875V109.402C547.118 110.494 550.638 112.535 552.785 115.527C554.967 118.518 556.058 122.496 556.058 127.458C556.058 134.498 553.506 139.989 548.403 143.931C543.334 147.873 536.436 149.844 527.707 149.844H498.828V72.6569ZM515.194 103.225H524.698C529.132 103.225 532.335 102.539 534.306 101.166C536.313 99.7937 537.316 97.5235 537.316 94.3558C537.316 91.3992 536.225 89.2874 534.042 88.0203C531.895 86.718 528.481 86.0669 523.8 86.0669H515.194V103.225ZM515.194 116.213V136.328H525.859C530.364 136.328 533.69 135.466 535.837 133.741C537.985 132.016 539.058 129.377 539.058 125.822C539.058 119.416 534.482 116.213 525.331 116.213H515.194ZM606.074 149.844V72.6569H622.441V149.844H606.074ZM746.529 111.145C746.529 123.921 743.361 133.741 737.026 140.605C730.691 147.468 721.61 150.9 709.784 150.9C697.957 150.9 688.877 147.468 682.541 140.605C676.206 133.741 673.038 123.886 673.038 111.039C673.038 98.1922 676.206 88.3899 682.541 81.6321C688.912 74.8391 698.028 71.4426 709.889 71.4426C721.751 71.4426 730.814 74.8567 737.079 81.6849C743.379 88.5131 746.529 98.333 746.529 111.145ZM690.197 111.145C690.197 119.768 691.833 126.262 695.106 130.626C698.38 134.991 703.272 137.173 709.784 137.173C722.842 137.173 729.371 128.497 729.371 111.145C729.371 93.7574 722.877 85.0638 709.889 85.0638C703.378 85.0638 698.468 87.2636 695.159 91.6632C691.851 96.0276 690.197 102.521 690.197 111.145Z" fill="#161616"/>
<circle cx="802.828" cy="137.859" r="13.5156" fill="#FFCA1A"/>
<circle cx="108.125" cy="108.125" r="108.125" fill="#FFDE72"/>
<path d="M98.5162 101.515H103.796C108.97 101.515 112.789 100.653 115.252 98.9279C117.716 97.2032 118.948 94.493 118.948 90.7974C118.948 87.1369 117.681 84.5323 115.147 82.9836C112.648 81.435 108.759 80.6606 103.479 80.6606H98.5162V101.515ZM98.5162 114.819V144.438H82.1497V67.2506H104.641C115.129 67.2506 122.89 69.1688 127.923 73.0053C132.956 76.8066 135.473 82.5965 135.473 90.375C135.473 94.9154 134.224 98.9631 131.725 102.518C129.226 106.038 125.688 108.801 121.113 110.807C132.728 128.159 140.295 139.369 143.815 144.438H125.653L107.227 114.819H98.5162Z" fill="#161616"/>
</svg>
