<svg width="286" height="76" viewBox="0 0 286 76" fill="none" xmlns="http://www.w3.org/2000/svg">
<path d="M102.45 37.2202H104.3C106.112 37.2202 107.45 36.9181 108.313 36.3138C109.177 35.7096 109.608 34.7601 109.608 33.4654C109.608 32.183 109.164 31.2705 108.276 30.7279C107.401 30.1853 106.038 29.914 104.189 29.914H102.45V37.2202ZM102.45 41.8813V52.2578H96.7161V25.2159H104.596C108.27 25.2159 110.989 25.888 112.753 27.2321C114.516 28.5638 115.398 30.5923 115.398 33.3174C115.398 34.9081 114.96 36.3262 114.084 37.5716C113.209 38.8047 111.97 39.7727 110.367 40.4755C114.436 46.5547 117.087 50.4821 118.32 52.2578H111.957L105.502 41.8813H102.45ZM155.856 25.2159V42.7136C155.856 44.7112 155.406 46.4622 154.506 47.9666C153.618 49.471 152.329 50.624 150.64 51.4255C148.951 52.227 146.953 52.6277 144.647 52.6277C141.17 52.6277 138.469 51.7399 136.546 49.9642C134.622 48.1763 133.66 45.7347 133.66 42.6396V25.2159H139.376V41.7703C139.376 43.8542 139.795 45.3833 140.633 46.3574C141.472 47.3316 142.859 47.8187 144.795 47.8187C146.669 47.8187 148.026 47.3316 148.864 46.3574C149.715 45.371 150.141 43.8296 150.141 41.7333V25.2159H155.856ZM174.6 25.2159H183.016C186.851 25.2159 189.631 25.7647 191.358 26.8621C193.096 27.9473 193.966 29.6798 193.966 32.0596C193.966 33.675 193.583 35.0006 192.819 36.0364C192.067 37.0722 191.062 37.6949 189.804 37.9045V38.0895C191.518 38.4718 192.751 39.187 193.503 40.2351C194.268 41.2832 194.65 42.6766 194.65 44.4153C194.65 46.8815 193.756 48.8051 191.968 50.1862C190.192 51.5673 187.775 52.2578 184.717 52.2578H174.6V25.2159ZM180.334 35.9254H183.663C185.217 35.9254 186.339 35.685 187.029 35.204C187.732 34.7231 188.084 33.9278 188.084 32.818C188.084 31.7822 187.701 31.0423 186.937 30.5984C186.185 30.1422 184.989 29.914 183.349 29.914H180.334V35.9254ZM180.334 40.4755V47.5227H184.07C185.648 47.5227 186.814 47.2206 187.566 46.6164C188.318 46.0122 188.694 45.0873 188.694 43.8419C188.694 41.5977 187.091 40.4755 183.885 40.4755H180.334ZM212.173 52.2578V25.2159H217.907V52.2578H212.173ZM261.38 38.6999C261.38 43.176 260.27 46.6164 258.051 49.0209C255.831 51.4255 252.65 52.6277 248.506 52.6277C244.363 52.6277 241.182 51.4255 238.962 49.0209C236.743 46.6164 235.633 43.1637 235.633 38.6629C235.633 34.1621 236.743 30.7279 238.962 28.3603C241.194 25.9805 244.388 24.7905 248.543 24.7905C252.699 24.7905 255.874 25.9866 258.069 28.3788C260.276 30.7711 261.38 34.2114 261.38 38.6999ZM241.644 38.6999C241.644 41.721 242.218 43.996 243.364 45.5251C244.511 47.0541 246.225 47.8187 248.506 47.8187C253.081 47.8187 255.369 44.7791 255.369 38.6999C255.369 32.6084 253.094 29.5626 248.543 29.5626C246.262 29.5626 244.542 30.3333 243.383 31.8747C242.224 33.4037 241.644 35.6788 241.644 38.6999Z" fill="white"/>
<ellipse cx="281.02" cy="48.2986" rx="4.731" ry="4.7351" fill="#FFCA1A"/>
<ellipse cx="37.848" cy="37.8808" rx="37.848" ry="37.8808" fill="#FFDE72"/>
<path d="M34.482 35.3266H36.3316C38.1443 35.3266 39.4822 35.0245 40.3454 34.4203C41.2085 33.8161 41.6401 32.8666 41.6401 31.5718C41.6401 30.2894 41.1962 29.3769 40.3084 28.8343C39.4329 28.2918 38.0703 28.0205 36.2207 28.0205H34.482V35.3266ZM34.482 39.9877V50.3643H28.7481V23.3224H36.6276C40.3022 23.3224 43.0212 23.9944 44.7845 25.3385C46.5479 26.6702 47.4295 28.6987 47.4295 31.4238C47.4295 33.0145 46.9918 34.4326 46.1163 35.678C45.2408 36.9111 44.0015 37.8791 42.3985 38.582C46.4677 44.6612 49.1189 48.5886 50.352 50.3643H43.9892L37.5339 39.9877H34.482Z" fill="#161616"/>
</svg>
